<svg height="3950" width="720" xmlns="http://www.w3.org/2000/svg">
<rect height="3950" fill="#555" width="720"></rect>
<text fill="#7f7" font-family="Courier New" font-size="12" xml:space="preserve">
<tspan x="10" y="26">41 megabytes installed</tspan>
<tspan x="10" y="42"></tspan>
<tspan x="10" y="58">node_modules</tspan>
<tspan x="10" y="74">└─┬ next-update@1.5.1 </tspan>
<tspan x="10" y="90">  ├─┬ changed-log@0.11.0 </tspan>
<tspan x="10" y="106">  │ ├── bluebird@3.4.1 </tspan>
<tspan x="10" y="122">  │ ├─┬ chalk@1.1.3 </tspan>
<tspan x="10" y="138">  │ │ ├── ansi-styles@2.2.1 </tspan>
<tspan x="10" y="154">  │ │ ├── escape-string-regexp@1.0.5 </tspan>
<tspan x="10" y="170">  │ │ ├── has-ansi@2.0.0 </tspan>
<tspan x="10" y="186">  │ │ ├── strip-ansi@3.0.1 </tspan>
<tspan x="10" y="202">  │ │ └── supports-color@2.0.0 </tspan>
<tspan x="10" y="218">  │ ├─┬ github@2.4.0 </tspan>
<tspan x="10" y="234">  │ │ ├─┬ follow-redirects@0.0.7 </tspan>
<tspan x="10" y="250">  │ │ │ └── stream-consume@0.1.0 </tspan>
<tspan x="10" y="266">  │ │ ├─┬ https-proxy-agent@1.0.0 </tspan>
<tspan x="10" y="282">  │ │ │ └─┬ agent-base@2.0.1 </tspan>
<tspan x="10" y="298">  │ │ │   └── semver@5.0.3 </tspan>
<tspan x="10" y="314">  │ │ └── mime@1.3.4 </tspan>
<tspan x="10" y="330">  │ ├─┬ inquirer@1.1.2 </tspan>
<tspan x="10" y="346">  │ │ ├── ansi-escapes@1.4.0 </tspan>
<tspan x="10" y="362">  │ │ ├─┬ cli-cursor@1.0.2 </tspan>
<tspan x="10" y="378">  │ │ │ └─┬ restore-cursor@1.0.1 </tspan>
<tspan x="10" y="394">  │ │ │   └── exit-hook@1.1.1 </tspan>
<tspan x="10" y="410">  │ │ ├── cli-width@2.1.0 </tspan>
<tspan x="10" y="426">  │ │ ├─┬ external-editor@1.1.1 </tspan>
<tspan x="10" y="442">  │ │ │ ├─┬ spawn-sync@1.0.15 </tspan>
<tspan x="10" y="458">  │ │ │ │ ├─┬ concat-stream@1.6.0 </tspan>
<tspan x="10" y="474">  │ │ │ │ │ └── typedarray@0.0.6 </tspan>
<tspan x="10" y="490">  │ │ │ │ └── os-shim@0.1.3 </tspan>
<tspan x="10" y="506">  │ │ │ └── tmp@0.0.29 </tspan>
<tspan x="10" y="522">  │ │ ├── figures@1.7.0 </tspan>
<tspan x="10" y="538">  │ │ ├── lodash@4.17.4 </tspan>
<tspan x="10" y="554">  │ │ ├── mute-stream@0.0.6 </tspan>
<tspan x="10" y="570">  │ │ ├─┬ pinkie-promise@2.0.1 </tspan>
<tspan x="10" y="586">  │ │ │ └── pinkie@2.0.4 </tspan>
<tspan x="10" y="602">  │ │ ├─┬ run-async@2.3.0 </tspan>
<tspan x="10" y="618">  │ │ │ └── is-promise@2.1.0 </tspan>
<tspan x="10" y="634">  │ │ ├── rx@4.1.0 </tspan>
<tspan x="10" y="650">  │ │ ├─┬ string-width@1.0.2 </tspan>
<tspan x="10" y="666">  │ │ │ ├── code-point-at@1.1.0 </tspan>
<tspan x="10" y="682">  │ │ │ └── is-fullwidth-code-point@1.0.0 </tspan>
<tspan x="10" y="698">  │ │ └── through@2.3.8 </tspan>
<tspan x="10" y="714">  │ ├─┬ package-json@2.3.3 </tspan>
<tspan x="10" y="730">  │ │ ├─┬ got@5.7.1 </tspan>
<tspan x="10" y="746">  │ │ │ ├─┬ create-error-class@3.0.2 </tspan>
<tspan x="10" y="762">  │ │ │ │ └── capture-stack-trace@1.0.0 </tspan>
<tspan x="10" y="778">  │ │ │ ├── duplexer2@0.1.4 </tspan>
<tspan x="10" y="794">  │ │ │ ├── is-redirect@1.0.0 </tspan>
<tspan x="10" y="810">  │ │ │ ├── is-retry-allowed@1.1.0 </tspan>
<tspan x="10" y="826">  │ │ │ ├── is-stream@1.1.0 </tspan>
<tspan x="10" y="842">  │ │ │ ├── lowercase-keys@1.0.0 </tspan>
<tspan x="10" y="858">  │ │ │ ├── node-status-codes@1.0.0 </tspan>
<tspan x="10" y="874">  │ │ │ ├─┬ parse-json@2.2.0 </tspan>
<tspan x="10" y="890">  │ │ │ │ └─┬ error-ex@1.3.1 </tspan>
<tspan x="10" y="906">  │ │ │ │   └── is-arrayish@0.2.1 </tspan>
<tspan x="10" y="922">  │ │ │ ├── read-all-stream@3.1.0 </tspan>
<tspan x="10" y="938">  │ │ │ ├─┬ readable-stream@2.2.9 </tspan>
<tspan x="10" y="954">  │ │ │ │ ├── buffer-shims@1.0.0 </tspan>
<tspan x="10" y="970">  │ │ │ │ └── string_decoder@1.0.0 </tspan>
<tspan x="10" y="986">  │ │ │ ├── timed-out@3.1.3 </tspan>
<tspan x="10" y="1002">  │ │ │ └── unzip-response@1.0.2 </tspan>
<tspan x="10" y="1018">  │ │ └─┬ rc@1.2.1 </tspan>
<tspan x="10" y="1034">  │ │   ├── deep-extend@0.4.1 </tspan>
<tspan x="10" y="1050">  │ │   ├── ini@1.3.4 </tspan>
<tspan x="10" y="1066">  │ │   ├── minimist@1.2.0 </tspan>
<tspan x="10" y="1082">  │ │   └── strip-json-comments@2.0.1 </tspan>
<tspan x="10" y="1098">  │ ├── parse-github-repo-url@1.3.0 </tspan>
<tspan x="10" y="1114">  │ ├── ramda@0.15.1 </tspan>
<tspan x="10" y="1130">  │ └─┬ update-notifier@1.0.2 </tspan>
<tspan x="10" y="1146">  │   ├─┬ boxen@0.6.0 </tspan>
<tspan x="10" y="1162">  │   │ ├── ansi-align@1.1.0 </tspan>
<tspan x="10" y="1178">  │   │ ├── camelcase@2.1.1 </tspan>
<tspan x="10" y="1194">  │   │ ├── cli-boxes@1.0.0 </tspan>
<tspan x="10" y="1210">  │   │ ├── filled-array@1.1.0 </tspan>
<tspan x="10" y="1226">  │   │ ├── repeating@2.0.1 </tspan>
<tspan x="10" y="1242">  │   │ └── widest-line@1.0.0 </tspan>
<tspan x="10" y="1258">  │   ├─┬ configstore@2.1.0 </tspan>
<tspan x="10" y="1274">  │   │ └─┬ dot-prop@3.0.0 </tspan>
<tspan x="10" y="1290">  │   │   └── is-obj@1.0.1 </tspan>
<tspan x="10" y="1306">  │   ├── latest-version@2.0.0 </tspan>
<tspan x="10" y="1322">  │   ├── lazy-req@1.1.0 </tspan>
<tspan x="10" y="1338">  │   └── xdg-basedir@2.0.0 </tspan>
<tspan x="10" y="1354">  ├─┬ chdir-promise@0.2.1 </tspan>
<tspan x="10" y="1370">  │ ├── check-more-types@1.1.0 </tspan>
<tspan x="10" y="1386">  │ ├── check-types@1.4.0 </tspan>
<tspan x="10" y="1402">  │ ├── lazy-ass@0.5.3 </tspan>
<tspan x="10" y="1418">  │ ├── q@1.1.2 </tspan>
<tspan x="10" y="1434">  │ └── spots@0.3.0 </tspan>
<tspan x="10" y="1450">  ├── check-more-types@2.22.0 </tspan>
<tspan x="10" y="1466">  ├─┬ cli-color@1.1.0 </tspan>
<tspan x="10" y="1482">  │ ├── ansi-regex@2.1.1 </tspan>
<tspan x="10" y="1498">  │ ├── d@0.1.1 </tspan>
<tspan x="10" y="1514">  │ ├─┬ es5-ext@0.10.15 </tspan>
<tspan x="10" y="1530">  │ │ └─┬ es6-symbol@3.1.1 </tspan>
<tspan x="10" y="1546">  │ │   └── d@1.0.0 </tspan>
<tspan x="10" y="1562">  │ ├─┬ es6-iterator@2.0.1 </tspan>
<tspan x="10" y="1578">  │ │ └── d@1.0.0 </tspan>
<tspan x="10" y="1594">  │ ├─┬ memoizee@0.3.10 </tspan>
<tspan x="10" y="1610">  │ │ ├─┬ es6-weak-map@0.1.4 </tspan>
<tspan x="10" y="1626">  │ │ │ ├── es6-iterator@0.1.3 </tspan>
<tspan x="10" y="1642">  │ │ │ └── es6-symbol@2.0.1 </tspan>
<tspan x="10" y="1658">  │ │ ├─┬ event-emitter@0.3.5 </tspan>
<tspan x="10" y="1674">  │ │ │ └── d@1.0.0 </tspan>
<tspan x="10" y="1690">  │ │ ├── lru-queue@0.1.0 </tspan>
<tspan x="10" y="1706">  │ │ └── next-tick@0.2.2 </tspan>
<tspan x="10" y="1722">  │ └─┬ timers-ext@0.1.2 </tspan>
<tspan x="10" y="1738">  │   └── next-tick@1.0.0 </tspan>
<tspan x="10" y="1754">  ├── console.json@0.2.1 </tspan>
<tspan x="10" y="1770">  ├── console.table@0.7.0 </tspan>
<tspan x="10" y="1786">  ├─┬ debug@2.2.0 </tspan>
<tspan x="10" y="1802">  │ └── ms@0.7.1 </tspan>
<tspan x="10" y="1818">  ├─┬ deps-ok@1.1.0 </tspan>
<tspan x="10" y="1834">  │ └── semver@5.1.0 </tspan>
<tspan x="10" y="1850">  ├── easy-table@0.3.0 </tspan>
<tspan x="10" y="1866">  ├─┬ is-online@5.1.2 </tspan>
<tspan x="10" y="1882">  │ ├─┬ is-reachable@1.3.0 </tspan>
<tspan x="10" y="1898">  │ │ ├── arrify@1.0.1 </tspan>
<tspan x="10" y="1914">  │ │ ├─┬ each-async@1.1.1 </tspan>
<tspan x="10" y="1930">  │ │ │ └── set-immediate-shim@1.0.1 </tspan>
<tspan x="10" y="1946">  │ │ ├── is-port-reachable@1.0.0 </tspan>
<tspan x="10" y="1962">  │ │ ├── router-ips@0.2.0 </tspan>
<tspan x="10" y="1978">  │ │ └─┬ url-parse-lax@1.0.0 </tspan>
<tspan x="10" y="1994">  │ │   └── prepend-http@1.0.4 </tspan>
<tspan x="10" y="2010">  │ ├── onetime@1.1.0 </tspan>
<tspan x="10" y="2026">  │ ├── random-item@1.0.0 </tspan>
<tspan x="10" y="2042">  │ └── root-hints@1.0.14 </tspan>
<tspan x="10" y="2058">  ├── lazy-ass@1.5.0 </tspan>
<tspan x="10" y="2074">  ├── lodash@3.10.1 </tspan>
<tspan x="10" y="2090">  ├─┬ npm-utils@1.7.1 </tspan>
<tspan x="10" y="2106">  │ ├── check-more-types@2.21.0 </tspan>
<tspan x="10" y="2122">  │ ├─┬ cross-spawn@4.0.0 </tspan>
<tspan x="10" y="2138">  │ │ ├─┬ lru-cache@4.0.2 </tspan>
<tspan x="10" y="2154">  │ │ │ ├── pseudomap@1.0.2 </tspan>
<tspan x="10" y="2170">  │ │ │ └── yallist@2.1.2 </tspan>
<tspan x="10" y="2186">  │ │ └─┬ which@1.2.14 </tspan>
<tspan x="10" y="2202">  │ │   └── isexe@2.0.0 </tspan>
<tspan x="10" y="2218">  │ ├── lazy-ass@1.4.0 </tspan>
<tspan x="10" y="2234">  │ ├── registry-url@3.1.0 </tspan>
<tspan x="10" y="2250">  │ ├─┬ user-home@2.0.0 </tspan>
<tspan x="10" y="2266">  │ │ └── os-homedir@1.0.2 </tspan>
<tspan x="10" y="2282">  │ └── verbal-expressions@0.2.1 </tspan>
<tspan x="10" y="2298">  ├─┬ optimist@0.6.1 </tspan>
<tspan x="10" y="2314">  │ ├── minimist@0.0.10 </tspan>
<tspan x="10" y="2330">  │ └── wordwrap@0.0.3 </tspan>
<tspan x="10" y="2346">  ├─┬ q@2.0.3 </tspan>
<tspan x="10" y="2362">  │ ├── asap@2.0.5 </tspan>
<tspan x="10" y="2378">  │ ├── pop-iterate@1.0.1 </tspan>
<tspan x="10" y="2394">  │ └── weak-map@1.0.5 </tspan>
<tspan x="10" y="2410">  ├── quote@0.4.0 </tspan>
<tspan x="10" y="2426">  ├─┬ request@2.74.0 </tspan>
<tspan x="10" y="2442">  │ ├── aws-sign2@0.6.0 </tspan>
<tspan x="10" y="2458">  │ ├── aws4@1.6.0 </tspan>
<tspan x="10" y="2474">  │ ├─┬ bl@1.1.2 </tspan>
<tspan x="10" y="2490">  │ │ └─┬ readable-stream@2.0.6 </tspan>
<tspan x="10" y="2506">  │ │   ├── core-util-is@1.0.2 </tspan>
<tspan x="10" y="2522">  │ │   ├── inherits@2.0.3 </tspan>
<tspan x="10" y="2538">  │ │   ├── isarray@1.0.0 </tspan>
<tspan x="10" y="2554">  │ │   ├── process-nextick-args@1.0.7 </tspan>
<tspan x="10" y="2570">  │ │   ├── string_decoder@0.10.31 </tspan>
<tspan x="10" y="2586">  │ │   └── util-deprecate@1.0.2 </tspan>
<tspan x="10" y="2602">  │ ├── caseless@0.11.0 </tspan>
<tspan x="10" y="2618">  │ ├─┬ combined-stream@1.0.5 </tspan>
<tspan x="10" y="2634">  │ │ └── delayed-stream@1.0.0 </tspan>
<tspan x="10" y="2650">  │ ├── extend@3.0.0 </tspan>
<tspan x="10" y="2666">  │ ├── forever-agent@0.6.1 </tspan>
<tspan x="10" y="2682">  │ ├─┬ form-data@1.0.1 </tspan>
<tspan x="10" y="2698">  │ │ └─┬ async@2.3.0 </tspan>
<tspan x="10" y="2714">  │ │   └── lodash@4.17.4 </tspan>
<tspan x="10" y="2730">  │ ├─┬ har-validator@2.0.6 </tspan>
<tspan x="10" y="2746">  │ │ ├─┬ commander@2.9.0 </tspan>
<tspan x="10" y="2762">  │ │ │ └── graceful-readlink@1.0.1 </tspan>
<tspan x="10" y="2778">  │ │ └─┬ is-my-json-valid@2.16.0 </tspan>
<tspan x="10" y="2794">  │ │   ├── generate-function@2.0.0 </tspan>
<tspan x="10" y="2810">  │ │   ├─┬ generate-object-property@1.2.0 </tspan>
<tspan x="10" y="2826">  │ │   │ └── is-property@1.0.2 </tspan>
<tspan x="10" y="2842">  │ │   ├── jsonpointer@4.0.1 </tspan>
<tspan x="10" y="2858">  │ │   └── xtend@4.0.1 </tspan>
<tspan x="10" y="2874">  │ ├─┬ hawk@3.1.3 </tspan>
<tspan x="10" y="2890">  │ │ ├── boom@2.10.1 </tspan>
<tspan x="10" y="2906">  │ │ ├── cryptiles@2.0.5 </tspan>
<tspan x="10" y="2922">  │ │ ├── hoek@2.16.3 </tspan>
<tspan x="10" y="2938">  │ │ └── sntp@1.0.9 </tspan>
<tspan x="10" y="2954">  │ ├─┬ http-signature@1.1.1 </tspan>
<tspan x="10" y="2970">  │ │ ├── assert-plus@0.2.0 </tspan>
<tspan x="10" y="2986">  │ │ ├─┬ jsprim@1.4.0 </tspan>
<tspan x="10" y="3002">  │ │ │ ├── assert-plus@1.0.0 </tspan>
<tspan x="10" y="3018">  │ │ │ ├── extsprintf@1.0.2 </tspan>
<tspan x="10" y="3034">  │ │ │ ├── json-schema@0.2.3 </tspan>
<tspan x="10" y="3050">  │ │ │ └── verror@1.3.6 </tspan>
<tspan x="10" y="3066">  │ │ └─┬ sshpk@1.13.0 </tspan>
<tspan x="10" y="3082">  │ │   ├── asn1@0.2.3 </tspan>
<tspan x="10" y="3098">  │ │   ├── assert-plus@1.0.0 </tspan>
<tspan x="10" y="3114">  │ │   ├── bcrypt-pbkdf@1.0.1 </tspan>
<tspan x="10" y="3130">  │ │   ├─┬ dashdash@1.14.1 </tspan>
<tspan x="10" y="3146">  │ │   │ └── assert-plus@1.0.0 </tspan>
<tspan x="10" y="3162">  │ │   ├── ecc-jsbn@0.1.1 </tspan>
<tspan x="10" y="3178">  │ │   ├─┬ getpass@0.1.6 </tspan>
<tspan x="10" y="3194">  │ │   │ └── assert-plus@1.0.0 </tspan>
<tspan x="10" y="3210">  │ │   ├── jodid25519@1.0.2 </tspan>
<tspan x="10" y="3226">  │ │   ├── jsbn@0.1.1 </tspan>
<tspan x="10" y="3242">  │ │   └── tweetnacl@0.14.5 </tspan>
<tspan x="10" y="3258">  │ ├── is-typedarray@1.0.0 </tspan>
<tspan x="10" y="3274">  │ ├── isstream@0.1.2 </tspan>
<tspan x="10" y="3290">  │ ├── json-stringify-safe@5.0.1 </tspan>
<tspan x="10" y="3306">  │ ├─┬ mime-types@2.1.15 </tspan>
<tspan x="10" y="3322">  │ │ └── mime-db@1.27.0 </tspan>
<tspan x="10" y="3338">  │ ├── node-uuid@1.4.8 </tspan>
<tspan x="10" y="3354">  │ ├── oauth-sign@0.8.2 </tspan>
<tspan x="10" y="3370">  │ ├── qs@6.2.3 </tspan>
<tspan x="10" y="3386">  │ ├── stringstream@0.0.5 </tspan>
<tspan x="10" y="3402">  │ ├─┬ tough-cookie@2.3.2 </tspan>
<tspan x="10" y="3418">  │ │ └── punycode@1.4.1 </tspan>
<tspan x="10" y="3434">  │ └── tunnel-agent@0.4.3 </tspan>
<tspan x="10" y="3450">  ├── semver@5.3.0 </tspan>
<tspan x="10" y="3466">  └─┬ update-notifier@0.5.0 </tspan>
<tspan x="10" y="3482">    ├─┬ configstore@1.4.0 </tspan>
<tspan x="10" y="3498">    │ ├── graceful-fs@4.1.11 </tspan>
<tspan x="10" y="3514">    │ ├─┬ mkdirp@0.5.1 </tspan>
<tspan x="10" y="3530">    │ │ └── minimist@0.0.8 </tspan>
<tspan x="10" y="3546">    │ ├── object-assign@4.1.1 </tspan>
<tspan x="10" y="3562">    │ ├── os-tmpdir@1.0.2 </tspan>
<tspan x="10" y="3578">    │ ├── osenv@0.1.4 </tspan>
<tspan x="10" y="3594">    │ ├── uuid@2.0.3 </tspan>
<tspan x="10" y="3610">    │ └─┬ write-file-atomic@1.3.1 </tspan>
<tspan x="10" y="3626">    │   ├── imurmurhash@0.1.4 </tspan>
<tspan x="10" y="3642">    │   └── slide@1.1.6 </tspan>
<tspan x="10" y="3658">    ├── is-npm@1.0.0 </tspan>
<tspan x="10" y="3674">    ├─┬ latest-version@1.0.1 </tspan>
<tspan x="10" y="3690">    │ └─┬ package-json@1.2.0 </tspan>
<tspan x="10" y="3706">    │   └─┬ got@3.3.1 </tspan>
<tspan x="10" y="3722">    │     ├─┬ duplexify@3.5.0 </tspan>
<tspan x="10" y="3738">    │     │ ├─┬ end-of-stream@1.0.0 </tspan>
<tspan x="10" y="3754">    │     │ │ └─┬ once@1.3.3 </tspan>
<tspan x="10" y="3770">    │     │ │   └── wrappy@1.0.2 </tspan>
<tspan x="10" y="3786">    │     │ └── stream-shift@1.0.0 </tspan>
<tspan x="10" y="3802">    │     ├── infinity-agent@2.0.3 </tspan>
<tspan x="10" y="3818">    │     ├── nested-error-stacks@1.0.2 </tspan>
<tspan x="10" y="3834">    │     ├── object-assign@3.0.0 </tspan>
<tspan x="10" y="3850">    │     └── timed-out@2.0.0 </tspan>
<tspan x="10" y="3866">    ├─┬ repeating@1.1.3 </tspan>
<tspan x="10" y="3882">    │ └─┬ is-finite@1.0.2 </tspan>
<tspan x="10" y="3898">    │   └── number-is-nan@1.0.1 </tspan>
<tspan x="10" y="3914">    ├── semver-diff@2.1.0 </tspan>
<tspan x="10" y="3930">    └── string-length@1.0.1</tspan>
</text>
</svg>
